<svg width="213" height="42" viewBox="0 0 213 42" fill="none" xmlns="http://www.w3.org/2000/svg">
<g clip-path="url(#clip0_501_2577)">
<path d="M17.8701 27.7715L25.8879 19.6342L31.4945 25.3239L42.873 13.7737H58.9071L31.4945 41.6016L17.8701 27.7715Z" fill="#FD2A2A"/>
<path d="M25.7736 0L14.3981 11.5457V8.96386H8.44146V17.5937L0 26.1626H16.0341L25.7736 16.2762L31.3787 21.9674L39.3965 13.8286L25.7736 0Z" fill="#041930"/>
<path d="M79.9002 12.7976V27.4375H76.5951V22.1702C75.4822 22.604 74.3033 22.8378 73.1113 22.861C71.1733 22.861 69.6895 22.3903 68.66 21.4488C67.6304 20.5074 67.1176 19.1527 67.1216 17.3848V12.8098H70.4192V17.0035C70.4192 18.007 70.6836 18.7633 71.2124 19.2727C71.7412 19.782 72.5074 20.0362 73.5109 20.0352C74.5749 20.0421 75.6284 19.8213 76.6027 19.3871V12.7976H79.9002Z" fill="#041930"/>
<path d="M91.504 17.2644C92.4234 18.095 92.8836 19.347 92.8846 21.0204V27.4497H89.88V26.0483C89.2791 27.0944 88.1523 27.6175 86.4998 27.6175C85.7364 27.6344 84.9786 27.4819 84.2794 27.1707C83.6974 26.9144 83.2004 26.4935 82.8477 25.9583C82.5152 25.4347 82.3427 24.8229 82.3519 24.2C82.3519 23.1539 82.74 22.3309 83.5162 21.731C84.2924 21.1312 85.4912 20.8318 87.1127 20.8328H89.6666C89.6666 20.1212 89.4533 19.5732 89.0267 19.1889C88.6 18.8046 87.961 18.613 87.1097 18.614C86.5183 18.6143 85.9307 18.7095 85.3685 18.8961C84.8435 19.0606 84.3516 19.3188 83.9158 19.6586L82.765 17.3848C83.4272 16.9252 84.1627 16.5853 84.9389 16.3799C85.7885 16.1427 86.6658 16.0231 87.5469 16.0246C89.2645 16.0215 90.5836 16.4348 91.504 17.2644ZM88.7623 25.0265C89.1862 24.7665 89.5055 24.3623 89.6636 23.8858V22.736H87.4643C86.1432 22.736 85.4837 23.1752 85.4857 24.0536C85.4793 24.247 85.5201 24.439 85.6045 24.6124C85.6889 24.7859 85.8143 24.9355 85.9695 25.0479C86.292 25.2919 86.7351 25.4139 87.299 25.4139C87.8126 25.424 88.3189 25.2899 88.7623 25.0265Z" fill="#041930"/>
<path d="M97.779 26.8687C96.8619 26.393 96.0921 25.6694 95.5545 24.7778C95.0169 23.8861 94.7324 22.861 94.7324 21.8156C94.7324 20.7702 95.0169 19.7451 95.5545 18.8535C96.0921 17.9618 96.8619 17.2382 97.779 16.7626C98.7652 16.2572 99.8576 16.0023 100.962 16.0199C102.029 15.9954 103.084 16.2513 104.024 16.7626C104.875 17.2351 105.545 17.9822 105.93 18.8854L103.437 20.2456C102.858 19.2127 102.026 18.6968 100.943 18.6978C100.558 18.6858 100.175 18.7538 99.8164 18.8978C99.4583 19.0418 99.1331 19.2586 98.8606 19.535C98.3108 20.0932 98.0359 20.8556 98.0359 21.8225C98.0359 22.7893 98.3108 23.5467 98.8606 24.0947C99.1328 24.3714 99.4581 24.5884 99.8162 24.7324C100.174 24.8764 100.558 24.9443 100.943 24.9319C102.045 24.9319 102.876 24.416 103.437 23.3841L105.93 24.7657C105.534 25.6538 104.865 26.3878 104.024 26.858C103.086 27.3764 102.03 27.6361 100.962 27.6113C99.8576 27.6289 98.7652 27.3741 97.779 26.8687Z" fill="#041930"/>
<path d="M117.162 18.8656H113.406V27.4498H110.217V18.8656H106.461V16.1877H117.157L117.162 18.8656Z" fill="#041930"/>
<path d="M118.873 16.1877H122.068V20.5873H126.891V16.1877H130.1V27.4498H126.885V23.2377H122.062V27.4498H118.873V16.1877Z" fill="#041930"/>
<path d="M142.286 20.7688C143.028 21.4103 143.399 22.3309 143.399 23.5305C143.399 24.7851 142.981 25.7545 142.144 26.4387C141.306 27.1229 140.117 27.4645 138.577 27.4635L133.176 27.4498V16.1877H136.372V19.7867H139.01C140.452 19.8009 141.544 20.1283 142.286 20.7688ZM139.714 24.7444C140.045 24.4659 140.21 24.0475 140.21 23.4894C140.21 22.9312 140.045 22.5337 139.714 22.2968C139.392 22.0457 138.915 21.913 138.283 21.8988L136.366 21.879V25.1409H138.283C138.905 25.1552 139.382 25.023 139.714 24.7444ZM144.6 16.1877H147.794V27.4498H144.595L144.6 16.1877Z" fill="#041930"/>
<path d="M150.881 16.1877H154.075V22.8824L159.484 16.1877H162.431V27.4497H159.236V20.755L153.857 27.4497H150.889L150.881 16.1877ZM152.798 11.7317H154.902C154.888 12.1493 155.031 12.5566 155.303 12.8709C155.557 13.1438 155.932 13.2795 156.426 13.2795C156.921 13.2795 157.302 13.1438 157.57 12.8709C157.837 12.5979 157.971 12.2197 157.971 11.7317H160.115C160.102 13.8921 158.879 14.9728 156.447 14.9738C154.016 14.9748 152.799 13.8941 152.798 11.7317Z" fill="#041930"/>
<path d="M183.774 24.7658V29.8699H180.786V27.4498H172.995V29.876H170.007V24.7658H170.458C171.144 24.7515 171.617 24.3398 171.879 23.5305C172.14 22.7213 172.305 21.5709 172.374 20.0795L172.525 16.1877H182.191V24.7658H183.774ZM175.026 23.1127C174.896 23.8376 174.652 24.3886 174.294 24.7658H178.973V18.8656H175.345L175.283 20.3098C175.261 21.249 175.175 22.1855 175.026 23.1127Z" fill="#041930"/>
<path d="M187.845 26.8687C186.946 26.3997 186.192 25.6858 185.67 24.8069C185.157 23.8957 184.887 22.8644 184.887 21.8149C184.887 20.7654 185.157 19.7341 185.67 18.8229C186.192 17.9445 186.946 17.2311 187.845 16.7626C188.821 16.2741 189.895 16.02 190.983 16.02C192.071 16.02 193.144 16.2741 194.12 16.7626C195.015 17.2332 195.764 17.9463 196.284 18.8229C196.798 19.7338 197.068 20.7652 197.068 21.8149C197.068 22.8646 196.798 23.896 196.284 24.8069C195.764 25.6839 195.015 26.3976 194.12 26.8687C193.144 27.3572 192.071 27.6113 190.983 27.6113C189.895 27.6113 188.821 27.3572 187.845 26.8687ZM193.018 24.0856C193.546 23.5204 193.811 22.7635 193.812 21.8149C193.813 20.8664 193.548 20.11 193.018 19.5457C192.758 19.2666 192.442 19.0467 192.093 18.9006C191.743 18.7544 191.366 18.6853 190.988 18.6979C190.608 18.6856 190.23 18.7548 189.878 18.9009C189.526 19.047 189.209 19.2667 188.946 19.5457C188.412 20.11 188.144 20.8664 188.144 21.8149C188.144 22.7635 188.412 23.5204 188.946 24.0856C189.209 24.3638 189.527 24.5828 189.879 24.7286C190.23 24.8744 190.608 24.9437 190.988 24.932C191.366 24.9444 191.742 24.8755 192.092 24.7296C192.442 24.5837 192.757 24.3642 193.018 24.0856Z" fill="#041930"/>
<path d="M210.095 27.4498V20.7063L206.776 26.3487H205.415L202.18 20.6788V27.4498H199.273V16.1877H202.633L206.178 22.6933L209.95 16.1877H212.955L212.996 27.4437L210.095 27.4498Z" fill="#041930"/>
</g>
<defs>
<clipPath id="clip0_501_2577">
<rect width="213" height="41.6016" fill="white"/>
</clipPath>
</defs>
</svg>
