<svg width="255" height="50" viewBox="0 0 255 50" fill="none" xmlns="http://www.w3.org/2000/svg">
<g clip-path="url(#clip0_486_3860)">
<path d="M21.3936 33.3779L30.9923 23.5978L37.7045 30.4362L51.3266 16.5542H70.5224L37.7045 49.9999L21.3936 33.3779Z" fill="#FD2A2A"/>
<path d="M30.8557 0L17.2372 13.8765V10.7735H10.106V21.1455L0 31.4443H19.1958L30.8557 19.562L37.566 26.4021L47.1648 16.6202L30.8557 0Z" fill="#041930"/>
<path d="M95.6553 15.3813V32.9767H91.6985V26.646C90.3661 27.1675 88.9548 27.4485 87.5277 27.4763C85.2076 27.4763 83.4313 26.9106 82.1987 25.7791C80.9661 24.6476 80.3522 23.0194 80.357 20.8945V15.396H84.3047V20.4363C84.3047 21.6423 84.6213 22.5514 85.2544 23.1636C85.8875 23.7758 86.8047 24.0813 88.0061 24.08C89.2799 24.0883 90.5412 23.8229 91.7075 23.3011V15.3813H95.6553Z" fill="#041930"/>
<path d="M109.547 20.7494C110.648 21.7477 111.199 23.2525 111.2 25.2637V32.991H107.603V31.3066C106.883 32.5639 105.534 33.1926 103.556 33.1926C102.642 33.213 101.735 33.0297 100.898 32.6556C100.201 32.3475 99.6061 31.8417 99.1838 31.1984C98.7857 30.5691 98.5792 29.8338 98.5903 29.0852C98.5903 27.8278 99.0549 26.8387 99.9841 26.1178C100.913 25.3969 102.349 25.037 104.29 25.0383H107.347C107.347 24.1829 107.092 23.5243 106.581 23.0625C106.07 22.6006 105.305 22.3702 104.286 22.3715C103.578 22.3719 102.875 22.4863 102.202 22.7105C101.573 22.9083 100.984 23.2186 100.463 23.627L99.0849 20.8942C99.8776 20.3418 100.758 19.9332 101.687 19.6864C102.704 19.4012 103.755 19.2576 104.81 19.2593C106.866 19.2556 108.445 19.7523 109.547 20.7494ZM106.265 30.0786C106.772 29.766 107.154 29.2803 107.344 28.7076V27.3256H104.711C103.129 27.3256 102.34 27.8535 102.342 28.9092C102.334 29.1416 102.383 29.3724 102.484 29.5809C102.585 29.7894 102.735 29.9692 102.921 30.1042C103.307 30.3975 103.838 30.5441 104.513 30.5441C105.128 30.5562 105.734 30.3952 106.265 30.0786Z" fill="#041930"/>
<path d="M117.059 32.2927C115.961 31.721 115.04 30.8514 114.396 29.7797C113.753 28.7081 113.412 27.476 113.412 26.2196C113.412 24.9632 113.753 23.7312 114.396 22.6595C115.04 21.5878 115.961 20.7182 117.059 20.1465C118.24 19.539 119.548 19.2327 120.87 19.2539C122.147 19.2244 123.41 19.5319 124.536 20.1465C125.554 20.7144 126.357 21.6122 126.818 22.6978L123.833 24.3327C123.14 23.0912 122.144 22.4711 120.847 22.4724C120.386 22.4579 119.927 22.5397 119.499 22.7128C119.07 22.8858 118.68 23.1464 118.354 23.4786C117.696 24.1494 117.367 25.0658 117.367 26.2279C117.367 27.3899 117.696 28.3002 118.354 28.9588C118.68 29.2913 119.07 29.5522 119.498 29.7252C119.927 29.8983 120.386 29.9799 120.847 29.965C122.166 29.965 123.161 29.3449 123.833 28.1047L126.818 29.7652C126.344 30.8326 125.543 31.7149 124.536 32.2799C123.413 32.903 122.149 33.2151 120.87 33.1853C119.548 33.2065 118.24 32.9002 117.059 32.2927Z" fill="#041930"/>
<path d="M140.264 22.674H135.768V32.9911H131.949V22.674H127.453V19.4556H140.259L140.264 22.674Z" fill="#041930"/>
<path d="M142.313 19.4556H146.138V24.7433H151.912V19.4556H155.753V32.9911H151.905V27.9288H146.131V32.9911H142.313V19.4556Z" fill="#041930"/>
<path d="M170.343 24.9614C171.231 25.7324 171.676 26.8389 171.676 28.2807C171.676 29.7885 171.174 30.9536 170.172 31.7759C169.17 32.5983 167.746 33.0088 165.902 33.0076L159.437 32.9911V19.4556H163.262V23.7811H166.42C168.147 23.7982 169.454 24.1916 170.343 24.9614ZM167.264 29.7397C167.659 29.4049 167.857 28.902 167.857 28.2312C167.857 27.5604 167.659 27.0826 167.264 26.7979C166.878 26.4961 166.306 26.3367 165.55 26.3196L163.255 26.2957V30.2162H165.55C166.294 30.2333 166.866 30.0745 167.264 29.7397ZM173.113 19.4556H176.936V32.9911H173.107L173.113 19.4556Z" fill="#041930"/>
<path d="M180.632 19.4557H184.456V27.5019L190.931 19.4557H194.459V32.9912H190.634V24.945L184.195 32.9912H180.641L180.632 19.4557ZM182.927 14.1001H185.445C185.429 14.6021 185.601 15.0916 185.925 15.4692C186.229 15.7973 186.679 15.9604 187.271 15.9604C187.862 15.9604 188.319 15.7973 188.639 15.4692C188.96 15.1412 189.12 14.6866 189.12 14.1001H191.686C191.671 16.6966 190.207 17.9955 187.296 17.9967C184.385 17.9979 182.928 16.6991 182.927 14.1001Z" fill="#041930"/>
<path d="M220.011 29.7653V35.8998H216.434V32.9911H207.107V35.9072H203.529V29.7653H204.069C204.89 29.7482 205.457 29.2533 205.77 28.2807C206.083 27.3081 206.281 25.9255 206.364 24.133L206.544 19.4556H218.115V29.7653H220.011ZM209.538 27.7785C209.382 28.6497 209.09 29.312 208.662 29.7653H214.263V22.674H209.919L209.846 24.4097C209.82 25.5386 209.717 26.6642 209.538 27.7785Z" fill="#041930"/>
<path d="M224.886 32.2927C223.809 31.7291 222.907 30.871 222.281 29.8147C221.667 28.7195 221.344 27.48 221.344 26.2187C221.344 24.9573 221.667 23.7178 222.281 22.6226C222.907 21.5668 223.809 20.7094 224.886 20.1465C226.054 19.5593 227.339 19.2539 228.642 19.2539C229.944 19.2539 231.23 19.5593 232.398 20.1465C233.469 20.712 234.366 21.5691 234.988 22.6226C235.603 23.7174 235.927 24.9571 235.927 26.2187C235.927 27.4803 235.603 28.7199 234.988 29.8147C234.366 30.8687 233.469 31.7265 232.398 32.2927C231.23 32.8799 229.944 33.1853 228.642 33.1853C227.339 33.1853 226.054 32.8799 224.886 32.2927ZM231.078 28.9478C231.711 28.2684 232.028 27.3587 232.029 26.2187C232.03 25.0786 231.713 24.1695 231.078 23.4914C230.767 23.1559 230.389 22.8916 229.97 22.716C229.551 22.5403 229.101 22.4572 228.648 22.4723C228.193 22.4576 227.74 22.5407 227.319 22.7163C226.898 22.8919 226.518 23.156 226.204 23.4914C225.564 24.1695 225.243 25.0786 225.243 26.2187C225.243 27.3587 225.564 28.2684 226.204 28.9478C226.519 29.2821 226.899 29.5453 227.32 29.7206C227.741 29.8958 228.193 29.979 228.648 29.965C229.101 29.98 229.551 29.8971 229.97 29.7217C230.389 29.5464 230.766 29.2826 231.078 28.9478Z" fill="#041930"/>
<path d="M251.522 32.9911V24.8863L247.549 31.6678H245.919L242.047 24.8533V32.9911H238.567V19.4556H242.588L246.833 27.2745L251.349 19.4556H254.946L254.995 32.9838L251.522 32.9911Z" fill="#041930"/>
</g>
<defs>
<clipPath id="clip0_486_3860">
<rect width="255" height="50" fill="white"/>
</clipPath>
</defs>
</svg>
